/* XPM */
static char * mafVMEShortcut_xpm[] = {
"15 15 6 1",
" 	c None",
".	c #FFFFFF",
"+	c #F3FFFF",
"@	c #D8E3EC",
"#	c #678FAF",
"$	c #9FC9D8",
"...............",
".........+.....",
".........+@@...",
".........+#$@..",
"..++++++++##$@.",
".@$$$$$$$$###$+",
"+$############@",
"+$############$",
"+$############@",
".@$$$$$$$$###$.",
"..++++++++##$@.",
".........+#$@..",
".........+@@...",
".........+.....",
"..............."};
