/* XPM */
static char * medVMEJoint_xpm[] = {
"15 15 126 2",
"  	c None",
". 	c #FFFFFF",
"+ 	c #CCD1CD",
"@ 	c #717F7F",
"# 	c #485C61",
"$ 	c #162427",
"% 	c #C6CBC8",
"& 	c #828C8B",
"* 	c #4D6C81",
"= 	c #6D97B8",
"- 	c #73A0C2",
"; 	c #45524F",
"> 	c #6D7048",
", 	c #B8B9B1",
"' 	c #CED0CE",
") 	c #8AA1AD",
"! 	c #91A5AD",
"~ 	c #92A0A7",
"{ 	c #707C7F",
"] 	c #4F6E8B",
"^ 	c #89B8D5",
"/ 	c #AACDDD",
"( 	c #AFD0DE",
"_ 	c #A5A890",
": 	c #ABA857",
"< 	c #6A6719",
"[ 	c #787A5D",
"} 	c #A8AC7A",
"| 	c #A2A462",
"1 	c #CCCF7B",
"2 	c #678FAF",
"3 	c #3E5776",
"4 	c #80AECE",
"5 	c #B9D5E1",
"6 	c #D8E3EC",
"7 	c #D6E1E9",
"8 	c #E2E2C4",
"9 	c #D4D395",
"0 	c #9D9C48",
"a 	c #504E09",
"b 	c #A7A662",
"c 	c #D4D47F",
"d 	c #5B7FA4",
"e 	c #486484",
"f 	c #8DBCD9",
"g 	c #CBDDE8",
"h 	c #E0ECF2",
"i 	c #E5ECF0",
"j 	c #FCFCF9",
"k 	c #E6E5B6",
"l 	c #B2AB5B",
"m 	c #6A6512",
"n 	c #5D5D2B",
"o 	c #B1B163",
"p 	c #939243",
"q 	c #314554",
"r 	c #324756",
"s 	c #384F60",
"t 	c #53738D",
"u 	c #85B5D5",
"v 	c #BBD6E2",
"w 	c #E9F4F8",
"x 	c #EDF1F2",
"y 	c #FFFFFC",
"z 	c #E0E0AB",
"A 	c #A5A351",
"B 	c #696511",
"C 	c #282700",
"D 	c #545400",
"E 	c #555500",
"F 	c #2F4251",
"G 	c #445F74",
"H 	c #6F9BBD",
"I 	c #8EBDD9",
"J 	c #B1D1E0",
"K 	c #CBD8D7",
"L 	c #EBEAC1",
"M 	c #BFBD75",
"N 	c #919038",
"O 	c #514E05",
"P 	c #201F00",
"Q 	c #304352",
"R 	c #52738C",
"S 	c #6B94B5",
"T 	c #74A1C5",
"U 	c #88A2A5",
"V 	c #B4B363",
"W 	c #96953E",
"X 	c #312E00",
"Y 	c #292800",
"Z 	c #4A4C00",
"` 	c #54561A",
" .	c #BCC5C0",
"..	c #9FAAA8",
"+.	c #818F8F",
"@.	c #37484F",
"#.	c #324655",
"$.	c #456175",
"%.	c #4F6E86",
"&.	c #55624B",
"*.	c #787721",
"=.	c #5E5D0B",
"-.	c #353400",
";.	c #1B1B00",
">.	c #808779",
",.	c #D5D7D5",
"'.	c #A9B4B0",
").	c #273844",
"!.	c #2B3D4A",
"~.	c #2E404E",
"{.	c #283024",
"].	c #353200",
"^.	c #242200",
"/.	c #191B01",
"(.	c #767F6F",
"_.	c #A2ACAB",
":.	c #2A3B44",
"<.	c #283844",
"[.	c #161E24",
"}.	c #363D2A",
"|.	c #7D8375",
"1.	c #C9CDC6",
"2.	c #D8DDDA",
"3.	c #7A8787",
"4.	c #485355",
"5.	c #E0E3E1",
". . . . . . . . . . . . . . . ",
". . . . . . . . . . . . . . . ",
". . . . . + @ # $ % . . . . . ",
". . . . & * = - ; > , . . . ' ",
") ! ~ { ] ^ / ( _ : < [ } | 1 ",
"2 2 2 3 4 5 6 7 8 9 0 a b c c ",
"d 2 2 e f g h i j k l m n o p ",
"q r s t u v w x y z A B C D E ",
"q q F G H I J K L M N O P E E ",
"q q Q q R S T U V W B X Y Z ` ",
" ...+.@.#.$.%.&.*.=.-.;.>.,.. ",
". . . '.).!.~.{.].^./.(.. . . ",
". . . . _.:.<.[.}.|.1.. . . . ",
". . . . . 2.3.4.5.. . . . . . ",
". . . . . . . . . . . . . . . "};
