/* XPM */
static char * medVMEMusculoSkeletalModel_xpm[] = {
"15 15 114 2",
"  	c None",
". 	c #FEFFFF",
"+ 	c #DCFCFF",
"@ 	c #DEFEFF",
"# 	c #E0FFFF",
"$ 	c #E8FFFF",
"% 	c #EDF3F7",
"& 	c #719DBA",
"* 	c #709CB8",
"= 	c #6F9BB6",
"- 	c #709BB6",
"; 	c #80ADC2",
"> 	c #F1FDFE",
", 	c #EAF0F5",
"' 	c #6992B2",
") 	c #6790B0",
"! 	c #668EAD",
"~ 	c #658CAB",
"{ 	c #648BA9",
"] 	c #9FC9D8",
"^ 	c #F1FFFF",
"/ 	c #F4FFFF",
"( 	c #6A93B4",
"_ 	c #6891B1",
": 	c #678FAF",
"< 	c #668DAD",
"[ 	c #648CAA",
"} 	c #678FAC",
"| 	c #86B7C9",
"1 	c #87B8CA",
"2 	c #88B8C9",
"3 	c #8AB9CA",
"4 	c #8BBACA",
"5 	c #8BBAC9",
"6 	c #CCDFE6",
"7 	c #EDF2F6",
"8 	c #6B95B6",
"9 	c #6A93B3",
"0 	c #668FAE",
"a 	c #658DAC",
"b 	c #6289A7",
"c 	c #6188A5",
"d 	c #6086A3",
"e 	c #5F84A2",
"f 	c #5E83A0",
"g 	c #5C819D",
"h 	c #5C809C",
"i 	c #BAC9D5",
"j 	c #8AADC4",
"k 	c #A9C4D3",
"l 	c #6D92AD",
"m 	c #CEE2E9",
"n 	c #6C96B8",
"o 	c #6A94B5",
"p 	c #8BADC5",
"q 	c #E4F4F7",
"r 	c #D0E4EB",
"s 	c #638AA8",
"t 	c #8CABC0",
"u 	c #E4F4F6",
"v 	c #BFCDD8",
"w 	c #6D98B9",
"x 	c #8CAEC6",
"y 	c #B4CDDB",
"z 	c #6F94B0",
"A 	c #B2CBD8",
"B 	c #B2CAD7",
"C 	c #5D819E",
"D 	c #C4D1DB",
"E 	c #6E99BB",
"F 	c #6C96B7",
"G 	c #8CAFC7",
"H 	c #90B0C7",
"I 	c #8EAEC3",
"J 	c #CCD7E0",
"K 	c #6F9ABC",
"L 	c #6D97B9",
"M 	c #799FB9",
"N 	c #D8EAF0",
"O 	c #6D91AD",
"P 	c #D1DBE3",
"Q 	c #F0F5F8",
"R 	c #709BBD",
"S 	c #6D98BA",
"T 	c #8DB0C9",
"U 	c #7A9FBA",
"V 	c #D0E3EA",
"W 	c #6188A6",
"X 	c #D9E1E8",
"Y 	c #F0F5F9",
"Z 	c #709CBE",
"` 	c #7AA0BB",
" .	c #8FB0C6",
"..	c #A3BFCF",
"+.	c #DEE5EB",
"@.	c #719DBF",
"#.	c #8DB1CA",
"$.	c #7299B5",
"%.	c #80A2BA",
"&.	c #5B7F9B",
"*.	c #EBEFF3",
"=.	c #FBFCFE",
"-.	c #DCE7F0",
";.	c #D8E4ED",
">.	c #D8E3EC",
",.	c #D4E0E9",
"'.	c #D4DFE8",
").	c #D1DDE6",
"!.	c #D1DCE5",
"~.	c #D0DBE4",
"{.	c #CDD9E2",
"].	c #CCD8E1",
"^.	c #C9D5DE",
"/.	c #FAFBFC",
". + + @ # $ . . . . . . . . . ",
"% & * = - ; > . . . . . . . . ",
", ' ) ! ~ { ] ^ ^ ^ ^ / / / . ",
", ( _ : < [ } | 1 2 2 3 4 5 6 ",
"7 8 9 _ 0 a { b c d e f g h i ",
"7 8 9 j ^ ^ k b l ^ ^ m g h i ",
"% n o p ^ q r s t u ^ m g h v ",
"% w 8 x ^ y ^ z A B ^ m C h D ",
"% E F G ^ H ^ I q t ^ m C h J ",
"% K L G ^ M q N ^ O ^ m C h P ",
"Q R S T ^ U y ^ V W ^ m C h X ",
"Y Z E T ^ `  .^ ..W ^ m C h +.",
"Y @.K #.^ ` $.^ %.W ^ m g &.*.",
"=.-.;.;.>.,.,.'.).!.~.{.].^./.",
". . . . . . . . . . . . . . . "};
