/* XPM */ 
static char * FRAME_ICON16x16_xpm[] = {
"16 16 233 2",
"  	c None",
"! 	c #FFFDFF",
"# 	c #FFFCFF",
"$ 	c #FEFFFF",
"% 	c #FBFFFF",
"& 	c #FFFFFB",
"' 	c #FDFFF2",
"( 	c #FEFFE3",
") 	c #F4FDC8",
"* 	c #FAFBB5",
"+ 	c #FFFFC6",
", 	c #FFFFE8",
"- 	c #FEFBF6",
". 	c #FFFCFE",
"0 	c #FFFBFF",
"1 	c #FCFFFF",
"2 	c #FFFEFF",
"3 	c #FFF8F7",
"4 	c #FFFBF4",
"5 	c #FFFEF1",
"6 	c #FFFFE6",
"7 	c #FFFFD0",
"8 	c #FFFBBB",
"9 	c #F7EF9E",
": 	c #FFFFB8",
"; 	c #FFFFDD",
"< 	c #FFFFEF",
"= 	c #FFFAF3",
"> 	c #FFF9F8",
"? 	c #FEF8FA",
"@ 	c #FBFFFE",
"A 	c #FFF6F3",
"B 	c #FFDCD1",
"C 	c #E3B39F",
"D 	c #FFF4D6",
"E 	c #FFFECD",
"F 	c #FFFBB4",
"G 	c #F5DD83",
"H 	c #F2D571",
"I 	c #FFF399",
"J 	c #FFFFC4",
"K 	c #FFFDD9",
"L 	c #FEC7B2",
"M 	c #F1BBAF",
"N 	c #FFF7F1",
"O 	c #FCFEFD",
"P 	c #E8B8A2",
"Q 	c #C68C67",
"R 	c #E9C287",
"S 	c #FFEEA5",
"T 	c #FFEC9B",
"U 	c #F1C56E",
"V 	c #E4B156",
"W 	c #FFE48B",
"X 	c #FFF4A4",
"Y 	c #F4DF9C",
"Z 	c #D99C6F",
"[ 	c #D2967A",
"] 	c #FFEFE4",
"^ 	c #FBFAF6",
"_ 	c #FFF9F2",
"` 	c #FFF1D4",
"a 	c #E9C589",
"b 	c #E2B758",
"c 	c #FFD46D",
"d 	c #FFF0A4",
"e 	c #D5995D",
"f 	c #BE703F",
"g 	c #FFD594",
"h 	c #FFEE8A",
"i 	c #DDC45D",
"j 	c #E0B66A",
"k 	c #FFDAAD",
"l 	c #FFFCEF",
"m 	c #FFFBF8",
"n 	c #FFFEEC",
"o 	c #FFFDCF",
"p 	c #FFF4A7",
"q 	c #FDD367",
"r 	c #FFCE68",
"s 	c #FFEAA7",
"t 	c #D9A377",
"u 	c #C37E5F",
"v 	c #FFCD9A",
"w 	c #FFE17C",
"x 	c #F7D967",
"y 	c #FDE082",
"z 	c #FFFFBF",
"{ 	c #FFFEE3",
"| 	c #FFFDF3",
"} 	c #FFFFEA",
"~ 	c #FFFFD9",
" !	c #FFFFB4",
"!!	c #FFF296",
"#!	c #FFF69A",
"$!	c #FFE99B",
"%!	c #FFE3AC",
"&!	c #FFFAD1",
"'!	c #FFF6D2",
"(!	c #FFF7C6",
")!	c #FFE797",
"*!	c #FFF696",
"+!	c #FFFA95",
",!	c #FFF69F",
"-!	c #FFFFCA",
".!	c #F5FBCB",
"0!	c #FCFCBC",
"1!	c #F0E184",
"2!	c #E9C966",
"3!	c #D9A458",
"4!	c #D6A467",
"5!	c #FFFFCD",
"6!	c #FFFCD1",
"7!	c #FFFDD6",
"8!	c #FFFED0",
"9!	c #FFDD9E",
":!	c #D6B05F",
";!	c #E0C760",
"<!	c #EBD975",
"=!	c #FBEFA3",
">!	c #FEF5B4",
"?!	c #FAFDB8",
"@!	c #F3EE9D",
"A!	c #EFD973",
"B!	c #DDB150",
"C!	c #BD7133",
"D!	c #C07D50",
"E!	c #FFFACA",
"F!	c #FDFFD3",
"G!	c #FFFFD8",
"H!	c #FFFBD0",
"I!	c #F9CE9B",
"J!	c #BC8741",
"K!	c #CEA440",
"L!	c #E8C95D",
"M!	c #F1E182",
"N!	c #FBF19A",
"O!	c #FFFFC9",
"P!	c #FFFFBC",
"Q!	c #FFF198",
"R!	c #FFE188",
"S!	c #FFD48F",
"T!	c #FFD096",
"U!	c #FFF6BF",
"V!	c #FFFECE",
"W!	c #FFF9CF",
"X!	c #FFF7C9",
"Y!	c #FFE5A9",
"Z!	c #FFDA8E",
"[!	c #FFEA88",
"]!	c #FFED89",
"^!	c #FFF9A9",
"_!	c #FFFFBA",
"`!	c #FFFCE9",
"a!	c #FFFFE3",
"b!	c #FFFFCC",
"c!	c #FFF0A3",
"d!	c #FFEE8E",
"e!	c #FFE484",
"f!	c #FFEBA2",
"g!	c #F9E0A8",
"h!	c #F8D6A9",
"i!	c #FFE9B0",
"j!	c #FFE187",
"k!	c #FFEA82",
"l!	c #FFF194",
"m!	c #FFF7AF",
"n!	c #FFFFDA",
"o!	c #FFFBE5",
"p!	c #FFFAF1",
"q!	c #FFF9D7",
"r!	c #E9C25D",
"s!	c #FCD66B",
"t!	c #FFF5A2",
"u!	c #D2B16C",
"v!	c #B4884B",
"w!	c #FFDE95",
"x!	c #FFEE85",
"y!	c #E8C95F",
"z!	c #F5CE7F",
"{!	c #FFF6C5",
"|!	c #FFFCEC",
"}!	c #FFF9F3",
"~!	c #FCBEA5",
" #	c #DC9464",
"!#	c #E2AA5D",
"##	c #FFE083",
"$#	c #FFF79C",
"%#	c #DABF64",
"&#	c #CFA64A",
"'#	c #FFEC8B",
"(#	c #FFEF8B",
")#	c #ECC872",
"*#	c #DE9159",
"+#	c #E89F7F",
",#	c #FFEADF",
"-#	c #FFFBFB",
".#	c #FFF8F5",
"0#	c #EAAC9D",
"1#	c #C27D5E",
"2#	c #FFD4A2",
"3#	c #FFFCB8",
"4#	c #FFF6A3",
"5#	c #ECD879",
"6#	c #FFEB87",
"7#	c #FFF8A7",
"8#	c #FFF4BB",
"9#	c #E49979",
":#	c #CA8172",
";#	c #FFECE8",
"<#	c #FEFDFB",
"=#	c white",
">#	c #FFF7F6",
"?#	c #FBDED6",
"@#	c #FFFFDC",
"A#	c #F5EA98",
"B#	c #F3E381",
"C#	c #FFFAA3",
"D#	c #FFFFD4",
"E#	c #FFFBE8",
"F#	c #FFE6DD",
"G#	c #FFE9E6",
"H#	c #FFFCF9",
"I#	c #FCFFFD",
"J#	c #FEFEFE",
"K#	c #FEF8AC",
"L#	c #F8EF90",
"M#	c #FFFFB6",
"N#	c #FFFFE2",
"O#	c #FFFDFB",
"P#	c #FFFAFF",
"Q#	c #FEFFFD",
"R#	c #F9FFFD",
"! # $ % & ' ( ) * + , - . 0 $ 1 ",
"2 ! 3 4 5 6 7 8 9 : ; < = > ? $ ",
"@ A B C D E F G H I J K L M N & ",
"O 4 P Q R S T U V W X Y Z [ ] ^ ",
"# _ ` a b c d e f g h i j k l ! ",
"m n o p q r s t u v w x y z { | ",
"} ~  !!!#!$!%!&!'!(!)!*!+!,!-!~ ",
".!0!1!2!3!4!5!6!7!8!9!:!;!<!=!>!",
"?!@!A!B!C!D!E!F!G!H!I!J!K!L!M!N!",
"O!P!Q!R!S!T!U!V!W!X!Y!Z![!]!^!_!",
"`!a!b!c!d!e!f!g!h!i!j!k!l!m!n!o!",
"! p!q!9!r!s!t!u!v!w!x!y!z!{!|!2 ",
"0 }!~! #!###$#%#&#'#(#)#*#+#,#-#",
"2 .#0#1#2#3#4#5#y!6#7#8#9#:#;#<#",
"=#> >#?#|!@#+ A#B#C#D#E#F#G#H#I#",
"=#2 # ! J#< 7 K#L#M#N#O#P#0 Q#R#"};