/* XPM */ 
static char * FRAME_ICON32x32_xpm[] = {
"32 32 938 2",
"  	c None",
"! 	c #FFFCFF",
"# 	c #FEFCFE",
"$ 	c #FEFDFE",
"% 	c #FCFEFD",
"& 	c #FBFEFC",
"' 	c #FCFEFB",
"( 	c #FEFEF9",
") 	c #FEFEF6",
"* 	c #FDFEF1",
"+ 	c #FDFFEB",
", 	c #FDFFE4",
"- 	c #FBFED9",
". 	c #F6FCCC",
"0 	c #F5FBC0",
"1 	c #F8F9B5",
"2 	c #FAFAB4",
"3 	c #FCFCBD",
"4 	c #FFFFCA",
"5 	c #FFFFDB",
"6 	c #FEFEE8",
"7 	c #FEFCF0",
"8 	c #FEFBF6",
"9 	c #FEFBF9",
": 	c #FEFAFB",
"; 	c #FFFAFD",
"< 	c #FEFAFD",
"= 	c #FDFDFE",
"> 	c #FCFEFE",
"? 	c #FEFCFC",
"@ 	c #FDFDFC",
"A 	c #FDFFFC",
"B 	c #FEFFFA",
"C 	c #FEFEF7",
"D 	c #FEFEF3",
"E 	c #FDFEEE",
"F 	c #FDFFE7",
"G 	c #FDFFDE",
"H 	c #FCFED4",
"I 	c #FAFDC9",
"J 	c #F8FABC",
"K 	c #F8F7B0",
"L 	c #F9F7AF",
"M 	c #FCFCB9",
"N 	c #FFFFC7",
"O 	c #FFFFD8",
"P 	c #FEFEE6",
"Q 	c #FEFDEE",
"R 	c #FEFCF4",
"S 	c #FEFCF8",
"T 	c #FEFBFA",
"U 	c #FFFCFD",
"V 	c #FEFBFD",
"W 	c #FDFBFD",
"X 	c #FCFDFD",
"Y 	c #FEF9FA",
"Z 	c #FEF7F6",
"[ 	c #FEF6F3",
"] 	c #FDF7F1",
"^ 	c #FEFAF1",
"_ 	c #FEFDEC",
"` 	c #FEFDE6",
"a 	c #FEFEDF",
"b 	c #FEFED4",
"c 	c #FEFDC9",
"d 	c #FEFBBE",
"e 	c #FBF6B1",
"f 	c #F7F0A3",
"g 	c #F8F1A1",
"h 	c #FCF9AE",
"i 	c #FFFEBE",
"j 	c #FFFED0",
"k 	c #FEF9EF",
"l 	c #FEF7F1",
"m 	c #FDF6F5",
"n 	c #FDF7F7",
"o 	c #FDF8F9",
"p 	c #FDFBFC",
"q 	c #FDFEFD",
"r 	c #FDFDFD",
"s 	c #FDFCFC",
"t 	c #FEF8F8",
"u 	c #FFF3F1",
"v 	c #FFECE7",
"w 	c #FAE3DB",
"x 	c #F4DDD2",
"y 	c #F7E6D7",
"z 	c #FDF5E3",
"{ 	c #FFFCE3",
"| 	c #FFFDDD",
"} 	c #FFFFD4",
"~ 	c #FFFEC8",
" !	c #FDF9BA",
"!!	c #FBF1A8",
"#!	c #F8EA99",
"$!	c #F5E58E",
"%!	c #F6E88F",
"&!	c #FBF39F",
"'!	c #FFFAB1",
"(!	c #FFFEC5",
")!	c #FFFFD5",
"*!	c #FFFFE0",
"+!	c #FFFBE4",
",!	c #FFEDDD",
"-!	c #FEE3D7",
".!	c #FBDED6",
"0!	c #F9DFDB",
"1!	c #FBEBE8",
"2!	c #FEF6F5",
"3!	c #FDFBFA",
"4!	c #FEFEFC",
"5!	c #FBFDFC",
"6!	c #FCFBFA",
"7!	c #FEF5F3",
"8!	c #FEECE5",
"9!	c #FDDED4",
":!	c #F2CBBD",
";!	c #E7BDAA",
"<!	c #EDCCB6",
"=!	c #FAEACF",
">!	c #FEF8D5",
"?!	c #FEFBCF",
"@!	c #FFFDC7",
"A!	c #FFFBBA",
"B!	c #FCF2A8",
"C!	c #F7E491",
"D!	c #F3DB80",
"E!	c #F2D676",
"F!	c #F4DC7B",
"G!	c #FAEA8E",
"H!	c #FFF5A3",
"I!	c #FFFBB7",
"J!	c #FEFEC8",
"K!	c #FDF4D3",
"L!	c #FDDCC3",
"M!	c #FBC9B6",
"N!	c #F4C0B1",
"O!	c #F2C4B9",
"P!	c #F8DDD5",
"Q!	c #FDF5EF",
"R!	c #FEFDFA",
"S!	c #FBFDFB",
"T!	c #FCFCFA",
"U!	c #FDF5F1",
"V!	c #FAE4DA",
"W!	c #F4CDBE",
"X!	c #E5B4A0",
"Y!	c #D8A38A",
"Z!	c #DFB494",
"[!	c #F1D5AE",
"]!	c #F9E9BA",
"^!	c #FDF4BC",
"_!	c #FFF8B7",
"`!	c #FFF5AC",
"a!	c #FBEA9A",
"b!	c #F6DA82",
"c!	c #F1CE71",
"d!	c #EEC867",
"e!	c #F0CE6D",
"f!	c #F9E183",
"g!	c #FFEF98",
"h!	c #FFF7AB",
"i!	c #FEF9B8",
"j!	c #FCF6BF",
"k!	c #F8E8BA",
"l!	c #F3CAA5",
"m!	c #ECB294",
"n!	c #E5A78F",
"o!	c #E4AE9C",
"p!	c #F1D0C4",
"q!	c #FDF0E8",
"r!	c #FEFAF4",
"s!	c #FDFBF7",
"t!	c #FDFEFA",
"u!	c #F6DFD2",
"v!	c #EBC1AD",
"w!	c #DBA68B",
"x!	c #CD9673",
"y!	c #D4A277",
"z!	c #E6BF89",
"{!	c #F2D698",
"|!	c #FBE8A4",
"}!	c #FFF0A6",
"~!	c #FFEEA0",
" #	c #FAE290",
"!#	c #F3CE7A",
"##	c #EDC067",
"$#	c #E6B65C",
"%#	c #E9BD62",
"&#	c #F7D67C",
"'#	c #FFE891",
"(#	c #FFF19F",
")#	c #FDF2A6",
"*#	c #F8EBA4",
"+#	c #F1D89B",
",#	c #E5B985",
"-#	c #DCA177",
".#	c #D69876",
"0#	c #D9A289",
"1#	c #EBC8B7",
"2#	c #FCEDE2",
"3#	c #FBF9F5",
"4#	c #F8E6D7",
"5#	c #F0CEB7",
"6#	c #E2B695",
"7#	c #D5A377",
"8#	c #D6A66E",
"9#	c #E1B671",
":#	c #EDC97A",
";#	c #FADD89",
"<#	c #FFE894",
"=#	c #FFEB9A",
">#	c #F7DD8E",
"?#	c #EBBF72",
"@#	c #E0A95C",
"A#	c #D79A4F",
"B#	c #DDA558",
"C#	c #F2C87A",
"D#	c #FFE290",
"E#	c #FFED97",
"F#	c #FBEC95",
"G#	c #F1DF8A",
"H#	c #E7CC7D",
"I#	c #DEB370",
"J#	c #DAA46D",
"K#	c #DCA479",
"L#	c #E4B392",
"M#	c #F1D3BE",
"N#	c #FDF0E5",
"O#	c #FEF9F4",
"P#	c #FCF9F8",
"Q#	c #FEFBFC",
"R#	c #FEFAFA",
"S#	c #FEF8F0",
"T#	c #FDF2E2",
"U#	c #FBE8CD",
"V#	c #F1D6AE",
"W#	c #E6C18B",
"X#	c #E1B872",
"Y#	c #E2B862",
"Z#	c #EBC163",
"[#	c #FAD26F",
"]#	c #FFE184",
"^#	c #F4DA91",
"_#	c #E1B16E",
"`#	c #D19154",
"a#	c #C67E46",
"b#	c #CF8C53",
"c#	c #EDBB7B",
"d#	c #FFDC92",
"e#	c #FFE991",
"f#	c #F9E886",
"g#	c #EAD572",
"h#	c #DFC465",
"i#	c #DCB764",
"j#	c #E1B570",
"k#	c #EDC18A",
"l#	c #F8D3AA",
"m#	c #FCE7CD",
"n#	c #FEF8EB",
"o#	c #FEFCF7",
"p#	c #FFFAFA",
"q#	c #FFFAF7",
"r#	c #FFF9EF",
"s#	c #FFF9E4",
"t#	c #FFF5D4",
"u#	c #FAEABA",
"v#	c #F2D99A",
"w#	c #EDCC7B",
"x#	c #EBC261",
"y#	c #F1C35B",
"z#	c #FBCD64",
"{#	c #FFDB7C",
"|#	c #FFE899",
"}#	c #F2D794",
"~#	c #DDAC72",
" $	c #CC8A58",
"!$	c #C0754A",
"#$	c #CA8357",
"$$	c #EBB37F",
"%$	c #FFD692",
"&$	c #FFE38B",
"'$	c #FAE37C",
"($	c #EDD468",
")$	c #E5C85F",
"*$	c #E6C366",
"+$	c #ECC878",
",$	c #F7D998",
"-$	c #FFEAB8",
".$	c #FFF4D4",
"0$	c #FFFBEA",
"1$	c #FFFDF5",
"2$	c #FFFCFA",
"3$	c #FFFBF4",
"4$	c #FFFCEC",
"5$	c #FFFCE0",
"6$	c #FFFAD1",
"7$	c #FDF6BD",
"8$	c #FBEDA6",
"9$	c #F9E088",
":$	c #F8D16B",
";$	c #F9CC61",
"<$	c #FDCD66",
"=$	c #FFD87C",
">$	c #FFE59A",
"?$	c #F3D799",
"@$	c #E0B17E",
"A$	c #CF9368",
"B$	c #C4805C",
"C$	c #CD8B66",
"D$	c #ECB486",
"E$	c #FFD294",
"F$	c #FFDE88",
"G$	c #FCE079",
"H$	c #F6DA6B",
"I$	c #F2D467",
"J$	c #F5D671",
"K$	c #F8DC84",
"L$	c #FCEBA1",
"M$	c #FEF8BE",
"N$	c #FFFCD4",
"O$	c #FFFDEE",
"P$	c #FFFCF4",
"Q$	c #FFFCF2",
"R$	c #FFFDE5",
"S$	c #FFFED8",
"T$	c #FFFDC8",
"U$	c #FFFBB8",
"V$	c #FFF5A6",
"W$	c #FFED91",
"X$	c #FFE37E",
"Y$	c #FFDB75",
"Z$	c #FFD878",
"[$	c #FFDD87",
"]$	c #FFE39E",
"^$	c #F7DBA3",
"_$	c #EAC798",
"`$	c #DFB48D",
"a$	c #D7A785",
"b$	c #DDAE8A",
"c$	c #F2C99D",
"d$	c #FFDBA0",
"e$	c #FFE08F",
"f$	c #FDE281",
"g$	c #FCE379",
"h$	c #FBE478",
"i$	c #FDE780",
"j$	c #FFEC8D",
"k$	c #FEFDB8",
"l$	c #FFFECB",
"m$	c #FFFDDA",
"n$	c #FFFDE4",
"o$	c #FFFDEA",
"p$	c #FFFEEA",
"q$	c #FFFEE6",
"r$	c #FFFEDB",
"s$	c #FFFECC",
"t$	c #FFFEBB",
"u$	c #FFF9AB",
"v$	c #FFF39D",
"w$	c #FFF195",
"x$	c #FFF091",
"y$	c #FFEB90",
"z$	c #FFE690",
"{$	c #FFE398",
"|$	c #FFE3A5",
"}$	c #FCE5B0",
"~$	c #F9E7BB",
" %	c #F6E6BF",
"!%	c #F4E1BC",
"#%	c #F5E2BC",
"$%	c #FBEABD",
"%%	c #FFECB4",
"&%	c #FFE89F",
"'%	c #FEE790",
"(%	c #FEEC8D",
")%	c #FEF18D",
"*%	c #FEF48F",
"+%	c #FFF593",
",%	c #FFF69C",
"-%	c #FFF8A8",
".%	c #FFFBBC",
"0%	c #FFFECE",
"1%	c #FFFEDD",
"2%	c #FCFEDF",
"3%	c #FDFEDB",
"4%	c #FEFDCF",
"5%	c #FCFBBD",
"6%	c #FAF6A8",
"7%	c #FAEF98",
"8%	c #F9E88B",
"9%	c #F7E487",
":%	c #F5E189",
";%	c #F4DC8A",
"<%	c #F4D88C",
"=%	c #F7DC99",
">%	c #FCE5AD",
"?%	c #FFEFBD",
"@%	c #FFF8CD",
"A%	c #FFFBD5",
"B%	c #FFFAD3",
"C%	c #FFFACE",
"D%	c #FFF5BF",
"E%	c #FFEAA8",
"F%	c #FDE496",
"G%	c #F7E38D",
"H%	c #F4E487",
"I%	c #F5E986",
"J%	c #F7EC87",
"K%	c #F8ED8C",
"L%	c #F9EE96",
"M%	c #FCF4AA",
"N%	c #FDF9BE",
"O%	c #FEFBC8",
"P%	c #FEFCCD",
"Q%	c #F7FBD0",
"R%	c #F9FCCC",
"S%	c #FCFBC0",
"T%	c #F8F3AB",
"U%	c #F3E892",
"V%	c #F1DE80",
"W%	c #EED472",
"X%	c #E8C76B",
"Y%	c #E3BA68",
"Z%	c #DFB369",
"[%	c #DFB370",
"]%	c #E8C98C",
"^%	c #F8EBB5",
"_%	c #FFFACA",
"`%	c #FFFBD0",
"a%	c #FFFCD3",
"b%	c #FFFDD1",
"c%	c #FFF7C4",
"d%	c #FFE9AD",
"e%	c #F9D994",
"f%	c #E9C97B",
"g%	c #E0C26B",
"h%	c #E2CA6A",
"i%	c #E7D36D",
"j%	c #EBD974",
"k%	c #F0E081",
"l%	c #F6E996",
"m%	c #FBF1AA",
"n%	c #FDF5B5",
"o%	c #FDF6BB",
"p%	c #F5FAC3",
"q%	c #F7FABE",
"r%	c #F8F6B1",
"s%	c #F5EC9B",
"t%	c #EEDE81",
"u%	c #EAD26F",
"v%	c #E5C360",
"w%	c #DCAE55",
"x%	c #D2994D",
"y%	c #CD904E",
"z%	c #CE955B",
"{%	c #DCB780",
"|%	c #F5EAB7",
"}%	c #FFFFD0",
"~%	c #FEFDD1",
" &	c #FEFCD2",
"!&	c #FEFCD4",
"#&	c #FFFDD5",
"$&	c #FFFED3",
"%&	c #FEF6C6",
"&&	c #FEE5AE",
"'&	c #F5CF90",
"(&	c #DCB36C",
")&	c #CEA655",
"*&	c #D2AF52",
"+&	c #DBBD58",
",&	c #E2C961",
"-&	c #EAD470",
".&	c #F1E085",
"0&	c #F7EA98",
"1&	c #FBEFA4",
"2&	c #FCF2AA",
"3&	c #F7FAB9",
"4&	c #F6F8B2",
"5&	c #F4F0A3",
"6&	c #F2E78E",
"7&	c #EDDA78",
"8&	c #E8CB66",
"9&	c #DFB856",
":&	c #D29D46",
";&	c #C5813B",
"<&	c #BF773E",
"=&	c #C2814D",
">&	c #D5A878",
"?&	c #F3E4B3",
"@&	c #FFFECF",
"A&	c #FEFED2",
"B&	c #FDFED3",
"C&	c #FEFED6",
"D&	c #FFFED6",
"E&	c #FFFDD3",
"F&	c #FEF3C6",
"G&	c #FCE0AE",
"H&	c #EFC48D",
"I&	c #D3A262",
"J&	c #C29245",
"K&	c #C79B41",
"L&	c #D2AC48",
"M&	c #DEBD53",
"N&	c #E8CC63",
"O&	c #EED876",
"P&	c #F2E388",
"Q&	c #F7EB95",
"R&	c #FAF09D",
"S&	c #FAFBB8",
"T&	c #F8F8B1",
"U&	c #F5F1A2",
"V&	c #F3E990",
"W&	c #F1DD7C",
"X&	c #ECCF6C",
"Y&	c #E5BD5E",
"Z&	c #D9A450",
"[&	c #CE8B48",
"]&	c #C9834B",
"^&	c #CC8B59",
"_&	c #DCAE7F",
"`&	c #F5E4B3",
"a&	c #FFFDCC",
"b&	c #FEFED0",
"c&	c #FEFED5",
"d&	c #FFFDD4",
"e&	c #FFFBD1",
"f&	c #FEF2C5",
"g&	c #FCE0AF",
"h&	c #F1C891",
"i&	c #D9AA6A",
"j&	c #CB9B51",
"k&	c #D0A54C",
"l&	c #D9B451",
"m&	c #E4C35A",
"n&	c #ECD167",
"o&	c #F0DB78",
"p&	c #F3E589",
"q&	c #F7ED95",
"r&	c #FBF39E",
"s&	c #FDFDC0",
"t&	c #FCFCBC",
"u&	c #FBF9B1",
"v&	c #FBF3A0",
"w&	c #FAE98D",
"x&	c #F8E081",
"y&	c #F5D478",
"z&	c #F1C674",
"{&	c #EDB974",
"|&	c #EBB477",
"}&	c #ECB67F",
"~&	c #F2CA96",
" '	c #FBEAB6",
"!'	c #FFFAC7",
"#'	c #FEFDCD",
"$'	c #FEFDD0",
"%'	c #FFF9CD",
"&'	c #FEF2C4",
"''	c #FEE6B2",
"('	c #FAD99E",
")'	c #F1C986",
"*'	c #ECC477",
"+'	c #EECC72",
",'	c #F1D673",
"-'	c #F5DC76",
".'	c #F8E37D",
"0'	c #F9EA8C",
"1'	c #FAF19C",
"2'	c #FCF6A6",
"3'	c #FDFAAE",
"4'	c #FFFECD",
"5'	c #FFFECA",
"6'	c #FFFEC2",
"7'	c #FFFAB4",
"8'	c #FFF3A4",
"9'	c #FFE58F",
":'	c #FFDF8D",
";'	c #FFDB8F",
"<'	c #FFD790",
"='	c #FFD592",
">'	c #FFDD9E",
"?'	c #FFEDB1",
"@'	c #FEF5BD",
"A'	c #FEF7C4",
"B'	c #FEF6C7",
"C'	c #FDF3C8",
"D'	c #FEF2C7",
"E'	c #FEF3C5",
"F'	c #FFF0BD",
"G'	c #FFE8AD",
"H'	c #FFDE93",
"I'	c #FFDF8C",
"J'	c #FFE68A",
"K'	c #FFEC8B",
"L'	c #FFED8C",
"M'	c #FFF092",
"N'	c #FFF4A2",
"O'	c #FFF9B2",
"P'	c #FFFCBB",
"Q'	c #FFFDC1",
"R'	c #FFFDDC",
"S'	c #FFFDCB",
"T'	c #FFFABD",
"U'	c #FFF4AE",
"V'	c #FFEE9F",
"W'	c #FFEA96",
"X'	c #FFE992",
"Y'	c #FFE58E",
"Z'	c #FFE18C",
"['	c #FFE494",
"]'	c #FFEAA4",
"^'	c #FDEDAE",
"_'	c #FCEBB3",
"`'	c #FBE7B5",
"a'	c #FBE3B6",
"b'	c #FCE5B8",
"c'	c #FEEAB8",
"d'	c #FFEAB0",
"e'	c #FFE59D",
"f'	c #FFE28F",
"g'	c #FFE48A",
"h'	c #FFE889",
"i'	c #FFED8D",
"j'	c #FFF193",
"k'	c #FFF29A",
"l'	c #FFF9B9",
"m'	c #FFFCCA",
"n'	c #FFFDD2",
"o'	c #FFFCD6",
"p'	c #FFFCEB",
"q'	c #FFFCEA",
"r'	c #FFFDCF",
"s'	c #FFF6BC",
"t'	c #FFEEA6",
"u'	c #FDE995",
"v'	c #FBE789",
"w'	c #FCE481",
"x'	c #FDE17F",
"y'	c #FEE589",
"z'	c #FFEA9B",
"{'	c #FBE7A1",
"|'	c #F5DC9F",
"}'	c #EFD29C",
"~'	c #ECCA99",
" (	c #EFCF9D",
"!(	c #F9DDA7",
"#(	c #FFE6A4",
"$(	c #FFE492",
"%(	c #FEE283",
"&(	c #FCE37D",
"'(	c #FBE47E",
"((	c #FCE887",
")(	c #FDEC93",
"*(	c #FEF2A3",
"+(	c #FFF7B5",
",(	c #FFFBCA",
"-(	c #FFFBE8",
".(	c #FFFCF6",
"0(	c #FFFBF3",
"1(	c #FFFBEC",
"2(	c #FFF4C1",
"3(	c #FFE8A7",
"4(	c #FADD8B",
"5(	c #F2D474",
"6(	c #F3D46C",
"7(	c #FAD870",
"8(	c #FEE281",
"9(	c #FFED98",
":(	c #F6E499",
";(	c #E6CB88",
"<(	c #D8B579",
"=(	c #CDA66D",
">(	c #D4AD75",
"?(	c #EFCD8F",
"@(	c #FFE399",
"A(	c #FFE88E",
"B(	c #FCE57F",
"C(	c #F4DB71",
"D(	c #F0D56D",
"E(	c #F5D779",
"F(	c #F9DF8D",
"G(	c #FDEDA8",
"H(	c #FFF8C2",
"I(	c #FFFCD7",
"J(	c #FFFCE6",
"K(	c #FFFDF0",
"L(	c #FFFCF5",
"M(	c #FFFBFC",
"N(	c #FFFBF9",
"O(	c #FEF9F0",
"P(	c #FEF6E3",
"Q(	c #FEF0D0",
"R(	c #FCE4B8",
"S(	c #F9D59B",
"T(	c #F2C97D",
"U(	c #EAC063",
"V(	c #EDC55F",
"W(	c #F8D269",
"X(	c #FEE27F",
"Y(	c #FFF097",
"Z(	c #F3E393",
"[(	c #DCC278",
"](	c #C9A560",
"^(	c #BC924F",
"_(	c #C69C59",
"`(	c #EAC67F",
"a(	c #FFE391",
"b(	c #FFEC8C",
"c(	c #FBE77F",
"d(	c #EFD66C",
"e(	c #E9C764",
"f(	c #EDC36C",
"g(	c #F2C980",
"h(	c #F7DA9E",
"i(	c #FDF3D6",
"j(	c #FEF8E8",
"k(	c #FFFBF5",
"l(	c #FFFCFC",
"m(	c #FFFBFB",
"n(	c #FEF7F0",
"o(	c #FEE9D9",
"p(	c #FDD6BB",
"q(	c #F5C49D",
"r(	c #E5AD6A",
"s(	c #E3B05C",
"t(	c #EBBE61",
"u(	c #F8D371",
"v(	c #FEE585",
"w(	c #FFF197",
"x(	c #F3E58F",
"y(	c #DEC672",
"z(	c #CEAC5A",
"{(	c #C49B4B",
"|(	c #CEA755",
"}(	c #EDCF79",
"~(	c #FFE88D",
" )	c #FFEE8B",
"!)	c #FAE782",
"#)	c #F0D571",
"$)	c #E8C166",
"%)	c #E6B063",
"&)	c #E6A96B",
"')	c #EBB281",
"()	c #F1C49F",
"))	c #F9DBC3",
"*)	c #FEEFE2",
"+)	c #FFF7F3",
",)	c #FFFAFC",
"-)	c #FEF5F0",
".)	c #FDDED0",
"0)	c #F9C0A9",
"1)	c #EBA886",
"2)	c #DC9669",
"3)	c #DB9960",
"4)	c #E3AB63",
"5)	c #EEC170",
"6)	c #FADA81",
"7)	c #FEEB90",
"8)	c #FFF399",
"9)	c #F4E88E",
":)	c #E3CD72",
";)	c #D7B85D",
"<)	c #D2AC50",
"=)	c #DAB658",
">)	c #F1D878",
"?)	c #FFF08E",
"@)	c #FBEA8A",
"A)	c #F4DA81",
"B)	c #EBC475",
"C)	c #E3A765",
"D)	c #DF9460",
"E)	c #E0936B",
"F)	c #E6A285",
"G)	c #F3C6B4",
"H)	c #FDE8DD",
"I)	c #FFF5F0",
"J)	c #FEFAF9",
"K)	c #FFFDFC",
"L)	c #FDF5F0",
"M)	c #F8D8CD",
"N)	c #F0B3A1",
"O)	c #DD977B",
"P)	c #CE8661",
"Q)	c #D69566",
"R)	c #ECB77C",
"S)	c #F7D38E",
"T)	c #FDE99C",
"U)	c #FFF59F",
"V)	c #F6EA91",
"W)	c #EAD679",
"X)	c #E1C666",
"Y)	c #DEBD59",
"Z)	c #E4C35E",
"[)	c #F5DC77",
"])	c #FFEC8A",
"^)	c #FFF295",
"_)	c #FDF19A",
"`)	c #FAEA9D",
"a)	c #F3D694",
"b)	c #E8AF7A",
"c)	c #DE9068",
"d)	c #D58466",
"e)	c #D78F7A",
"f)	c #EABCAF",
"g)	c #FCE7DF",
"h)	c #FFF6F3",
"i)	c #FEFBF8",
"j)	c #FFFDFD",
"k)	c #FEF5F2",
"l)	c #F7DAD2",
"m)	c #ECB7AA",
"n)	c #DA9B87",
"o)	c #CC8C6F",
"p)	c #DAA27D",
"q)	c #F6CB9D",
"r)	c #FEE6AF",
"s)	c #FEF5B7",
"t)	c #FFFBB5",
"u)	c #FFF7A9",
"v)	c #F9ED99",
"w)	c #F0DF84",
"x)	c #EAD472",
"y)	c #E8CC65",
"z)	c #ECD068",
"{)	c #F8E17C",
"|)	c #FFEE8F",
"})	c #FFF4A0",
"~)	c #FEF8AD",
" *	c #FEF7B9",
"!*	c #FAE7B4",
"#*	c #F0BF98",
"$*	c #E39E80",
"%*	c #D58D78",
"&*	c #D49487",
"'*	c #E8BFB7",
"(*	c #FCEAE5",
")*	c #FEF8F6",
"**	c #FDFCF9",
"+*	c #FFFCFB",
",*	c #FEF7F5",
"-*	c #FAE8E4",
".*	c #F4D6CF",
"0*	c #EAC2B7",
"1*	c #E2B5A3",
"2*	c #EBC4AD",
"3*	c #FBE2C5",
"4*	c #FFF4CE",
"5*	c #FFFBCC",
"6*	c #FFFEC6",
"7*	c #FAF3A9",
"8*	c #F4E793",
"9*	c #EFDE81",
":*	c #EED875",
";*	c #F1DC78",
"<*	c #F9EA89",
"=*	c #FFF49D",
">*	c #FFFBC3",
"?*	c #FDF1CF",
"@*	c #F8D7BE",
"A*	c #F1C2B0",
"B*	c #E9B8AC",
"C*	c #E8BEB6",
"D*	c #F3D8D3",
"E*	c #FDF2EF",
"F*	c #FDFBF8",
"G*	c #FCFDFA",
"H*	c #FFFDFE",
"I*	c #FEF9F8",
"J*	c #FDF3F2",
"K*	c #FBE8E5",
"L*	c #F9DFD7",
"M*	c #FAE6DB",
"N*	c #FDF5E6",
"O*	c #FEFDDD",
"P*	c #FFFED4",
"Q*	c #FFFEC9",
"R*	c #FCF8B8",
"S*	c #F7EEA2",
"T*	c #F4E790",
"U*	c #F3E384",
"V*	c #F4E686",
"W*	c #FAF297",
"X*	c #FFFAAC",
"Y*	c #FFFDC3",
"Z*	c #FFFDD6",
"[*	c #FFFCE1",
"]*	c #FEF7E5",
"^*	c #FEECE0",
"_*	c #FDE4DC",
"`*	c #FDE3DE",
"a*	c #FDE7E4",
"b*	c #FDF1EE",
"c*	c #FDFAF7",
"d*	c #FFFEFE",
"e*	c #FFFBFD",
"f*	c #FFF6F7",
"g*	c #FEF2F0",
"h*	c #FEFEF2",
"i*	c #FEFEE9",
"j*	c #FFFFDE",
"k*	c #FFFFD1",
"l*	c #FDFBC0",
"m*	c #FAF4AC",
"n*	c #F8EE9A",
"o*	c #F6EA8E",
"p*	c #F7ED90",
"q*	c #FBF7A1",
"r*	c #FFFDB6",
"s*	c #FFFEE0",
"t*	c #FFFDEC",
"u*	c #FFFAF2",
"v*	c #FFF5F2",
"w*	c #FFF3F2",
"x*	c #FFF3F4",
"y*	c #FFF6F6",
"z*	c #FFFAF8",
"{*	c #FDFDFB",
"|*	c #FBFEFB",
"}*	c #FAFEFC",
"~*	c #FFFCFE",
" +	c #FEFBFE",
"!+	c #FDFAFB",
"#+	c #FEFEF8",
"$+	c #FEFEEF",
"%+	c #FFFFE4",
"&+	c #FDFCC4",
"'+	c #FDF8B3",
"(+	c #FBF4A1",
")+	c #F8EF94",
"*+	c #F8F196",
"++	c #FBF9A8",
",+	c #FFFEBD",
"-+	c #FFFEE5",
".+	c #FFFDF2",
"0+	c #FFF8FC",
"1+	c #FFF8FD",
"2+	c #FEFAFC",
"3+	c #F9FEFC",
"! ! # # $ % & ' ( ) * + , - . 0 1 2 3 4 5 6 7 8 9 : ; < # = > > ",
"! ! # # ? @ A B C D E F G H I J K L M N O P Q R S T U V V W X > ",
"# # V Y Z [ ] ^ 7 _ ` a b c d e f g h i j a 6 Q k l [ m n o p q ",
"r s t u v w x y z { | } ~  !!!#!$!%!&!'!(!)!*!+!,!-!.!0!1!2!3!4!",
"5!6!7!8!9!:!;!<!=!>!?!@!A!B!C!D!E!F!G!H!I!J!b K!L!M!N!O!P!Q!S R!",
"S!T!U!V!W!X!Y!Z![!]!^!_!`!a!b!c!d!e!f!g!h!i!j!k!l!m!n!o!p!q!r!s!",
"5!t!] u!v!w!x!y!z!{!|!}!~! #!###$#%#&#'#(#)#*#+#,#-#.#0#1#2#l 3#",
"s R!] 4#5#6#7#8#9#:#;#<#=#>#?#@#A#B#C#D#E#F#G#H#I#J#K#L#M#N#O#P#",
"Q#R#S#T#U#V#W#X#Y#Z#[#]#=#^#_#`#a#b#c#d#e#f#g#h#i#j#k#l#m#n#o#Q#",
"p#q#r#s#t#u#v#w#x#y#z#{#|#}#~# $!$#$$$%$&$'$($)$*$+$,$-$.$0$1$2$",
"q#3$4$5$6$7$8$9$:$;$<$=$>$?$@$A$B$C$D$E$F$G$H$I$J$K$L$M$N${ O$P$",
"Q$O$R$S$T$U$V$W$X$Y$Z$[$]$^$_$`$a$b$c$d$e$f$g$h$i$j$H!k$l$m$n$o$",
"p$q$r$s$t$u$v$w$x$y$z${$|$}$~$ %!%#%$%%%&%'%(%)%*%+%,%-%.%0%S$1%",
"2%3%4%5%6%7%8%9%:%;%<%=%>%?%@%N$A%B%C%D%E%F%G%H%I%J%K%L%M%N%O%P%",
"Q%R%S%T%U%V%W%X%Y%Z%[%]%^%_%`%a%N$N$b%c%d%e%f%g%h%i%j%k%l%m%n%o%",
"p%q%r%s%t%u%v%w%x%y%z%{%|%}%~% &!&#&$&%&&&'&(&)&*&+&,&-&.&0&1&2&",
"3&4&5&6&7&8&9&:&;&<&=&>&?&@&A&B&C&D&E&F&G&H&I&J&K&L&M&N&O&P&Q&R&",
"S&T&U&V&W&X&Y&Z&[&]&^&_&`&a&b&B&c&d&e&f&g&h&i&j&k&l&m&n&o&p&q&r&",
"s&t&u&v&w&x&y&z&{&|&}&~& '!'#'$' &6$%'&'''(')'*'+','-'.'0'1'2'3'",
"4'5'6'7'8'E#9':';'<'='>'?'@'A'B'C'D'E'F'G']$H'I'J'K'L'M'N'O'P'Q'",
"| R'D&S'T'U'V'W'X'Y'Z'[']'^'_'`'a'b'c'd'e'f'g'h'i'j'k'V$l'm'n'o'",
"p'q'n$r$r's't'u'v'w'x'y'z'{'|'}'~' (!(#($(%(&('((()(*(+(,(R'n$-(",
".(0(1({ o'2(3(4(5(6(7(8(9(:(;(<(=(>(?(@(A(B(C(D(E(F(G(H(I(J(K(L(",
"M(N(O(P(Q(R(S(T(U(V(W(X(Y(Z([(](^(_(`(a(b(c(d(e(f(g(h($%i(j(k(l(",
"; m(n(o(p(q($$r(s(t(u(v(w(x(y(z({(|(}(~( )!)#)$)%)&)')()))*)+)m(",
",)l(-).)0)1)2)3)4)5)6)7)8)9):);)<)=)>)K'?)@)A)B)C)D)E)F)G)H)I)J)",
"M(K)L)M)N)O)P)Q)R)S)T)N'U)V)W)X)Y)Z)[)])^)_)`)a)b)c)d)e)f)g)h)i)",
"j)K)k)l)m)n)o)p)q)r)s)t)u)v)w)x)y)z){)|)})~) *!*#*$*%*&*'*(*)***",
"j)+*,*-*.*0*1*2*3*4*5*6*A!7*8*9*:*;*<*=*O'>*`%?*@*A*B*C*D*E*F*G*",
"H*+*I*Z J*K*L*M*N*` O*P*Q*R*S*T*U*V*W*X*Y*Z*[*]*^*_*`*a*b*c*G*S!",
"d*U m(M(e*f*g*k)8 h*i*j*k*l*m*n*o*p*q*r*4's*t*u*v*w*x*y*z*{*|*}*",
"d*H*~*~* +V !+W ? #+$+%+)!&+'+(+)+*+++,+$&-+.+N(,)0+1+2+? @ |*3+"};