/* XPM */
static char * FRAME_ICON16x16_xpm[] = {
"16 16 108 2",
"  	c None",
". 	c #000000",
"+ 	c #020200",
"@ 	c #2C2600",
"# 	c #2D2800",
"$ 	c #342300",
"% 	c #260A04",
"& 	c #010B15",
"* 	c #010000",
"= 	c #090800",
"- 	c #DABB00",
"; 	c #FAAE00",
"> 	c #FE9100",
", 	c #DF3205",
"' 	c #45629C",
") 	c #0361B6",
"! 	c #020609",
"~ 	c #0A0700",
"{ 	c #F09900",
"] 	c #FFA200",
"^ 	c #F06700",
"/ 	c #E33200",
"( 	c #CE3913",
"_ 	c #146DC5",
": 	c #013462",
"< 	c #0A0600",
"[ 	c #F19800",
"} 	c #FEA000",
"| 	c #E84900",
"1 	c #E23400",
"2 	c #E43300",
"3 	c #C63C1B",
"4 	c #03315C",
"5 	c #080600",
"6 	c #D49400",
"7 	c #FD9500",
"8 	c #EC4000",
"9 	c #E93600",
"0 	c #E63500",
"a 	c #C02B00",
"b 	c #1E0500",
"c 	c #000100",
"d 	c #1D2900",
"e 	c #3C2900",
"f 	c #491200",
"g 	c #441000",
"h 	c #300B00",
"i 	c #100400",
"j 	c #030400",
"k 	c #020500",
"l 	c #030000",
"m 	c #040100",
"n 	c #050700",
"o 	c #85A400",
"p 	c #8CAD00",
"q 	c #8BB200",
"r 	c #974C00",
"s 	c #8C2900",
"t 	c #5F2600",
"u 	c #401D00",
"v 	c #060900",
"w 	c #88DE03",
"x 	c #97EA02",
"y 	c #9BEB02",
"z 	c #A0D402",
"A 	c #BC5600",
"B 	c #CD6100",
"C 	c #D46400",
"D 	c #472100",
"E 	c #000900",
"F 	c #00C90A",
"G 	c #00D40B",
"H 	c #00D50A",
"I 	c #02C60E",
"J 	c #A8DD04",
"K 	c #C6D700",
"L 	c #CAC400",
"M 	c #A39100",
"N 	c #000801",
"O 	c #00CB08",
"P 	c #06A716",
"Q 	c #95D105",
"R 	c #C5DF00",
"S 	c #C7E200",
"T 	c #A9BF00",
"U 	c #000011",
"V 	c #00AC40",
"W 	c #00D905",
"X 	c #00BA11",
"Y 	c #01A316",
"Z 	c #84CC07",
"` 	c #C6E000",
" .	c #D0E700",
"..	c #747200",
"+.	c #00050A",
"@.	c #0078BC",
"#.	c #00DA12",
"$.	c #00B416",
"%.	c #00AE18",
"&.	c #75D30B",
"*.	c #B9D100",
"=.	c #6E7100",
"-.	c #070600",
";.	c #000001",
">.	c #00090F",
",.	c #000C07",
"'.	c #000D02",
").	c #000A02",
"    . . . . . . . . .           ",
"    . + @ # $ % & * . .         ",
"    . = - ; > , ' ) ! . .       ",
"    . ~ { ] ^ / ( _ : . .       ",
"    . < [ } | 1 2 3 4 . .       ",
"    . 5 6 7 8 9 0 a b .         ",
"    . c d e f g h i .           ",
"    . . j j k l m . . .         ",
"    . n o p q r s t u . .       ",
"    . v w x y z A B C D . .     ",
"    . E F G H I J K L M . .     ",
"    . N O H H P Q R S T . .     ",
"    . U V W X Y Z `  .... .     ",
"    . +.@.#.$.%.&.*.=.-..       ",
"    . ;.>.,.'.).. . . .         ",
"    . . . . . . . . .           "};
