/* XPM */
static char * FRAME_ICON32x32_xpm[] = {
"32 32 240 2",
"  	c None",
". 	c #000000",
"+ 	c #030200",
"@ 	c #3B3300",
"# 	c #4C4200",
"$ 	c #4C4300",
"% 	c #563700",
"& 	c #563600",
"* 	c #4A0F00",
"= 	c #2F1514",
"- 	c #04192E",
"; 	c #030F1C",
"> 	c #020000",
", 	c #080700",
"' 	c #AC9500",
") 	c #DEC100",
"! 	c #E1BD00",
"~ 	c #F7A300",
"{ 	c #FB9F00",
"] 	c #F58600",
"^ 	c #DE3000",
"/ 	c #E23200",
"( 	c #2166B2",
"_ 	c #006ED1",
": 	c #0464BC",
"< 	c #071F37",
"[ 	c #AF9600",
"} 	c #EBB700",
"| 	c #FDA200",
"1 	c #FEA000",
"2 	c #FFA200",
"3 	c #EE6500",
"4 	c #E23300",
"5 	c #E43400",
"6 	c #D4380D",
"7 	c #106DC7",
"8 	c #0072D8",
"9 	c #0171D6",
"0 	c #051E36",
"a 	c #090700",
"b 	c #C08100",
"c 	c #FD9E00",
"d 	c #E84B00",
"e 	c #E23400",
"f 	c #E33400",
"g 	c #A0463F",
"h 	c #0470D2",
"i 	c #0072D9",
"j 	c #054E90",
"k 	c #0A0600",
"l 	c #C57C00",
"m 	c #FB9300",
"n 	c #E53E00",
"o 	c #EA3200",
"p 	c #5B5980",
"q 	c #0073DC",
"r 	c #095CAA",
"s 	c #F78400",
"t 	c #E63300",
"u 	c #455F97",
"v 	c #015BAD",
"w 	c #EE6400",
"x 	c #E13200",
"y 	c #CE3B15",
"z 	c #233E66",
"A 	c #C97D00",
"B 	c #FFA500",
"C 	c #E43E00",
"D 	c #E53400",
"E 	c #410F00",
"F 	c #050400",
"G 	c #866000",
"H 	c #FF9F00",
"I 	c #FB9200",
"J 	c #E02E00",
"K 	c #E53500",
"L 	c #EE3700",
"M 	c #651800",
"N 	c #010500",
"O 	c #1B5800",
"P 	c #2D6300",
"Q 	c #8C7700",
"R 	c #C65B00",
"S 	c #BC2900",
"T 	c #BD2B00",
"U 	c #BC2B00",
"V 	c #B92A00",
"W 	c #B12900",
"X 	c #801E00",
"Y 	c #160500",
"Z 	c #020500",
"` 	c #020700",
" .	c #000600",
"..	c #070300",
"+.	c #0A0200",
"@.	c #090200",
"#.	c #080200",
"$.	c #040100",
"%.	c #020400",
"&.	c #435600",
"*.	c #5C7300",
"=.	c #5B7700",
"-.	c #661D00",
";.	c #651F00",
">.	c #5D1D00",
",.	c #4F1900",
"'.	c #2D0F00",
").	c #040200",
"!.	c #080900",
"~.	c #99C000",
"{.	c #C6F900",
"].	c #C5FD00",
"^.	c #CEB400",
"/.	c #DC4100",
"(.	c #DE4500",
"_.	c #CA4100",
":.	c #9A3A00",
"<.	c #A44400",
"[.	c #934300",
"}.	c #3D1D00",
"|.	c #070900",
"1.	c #98BA00",
"2.	c #C5F100",
"3.	c #C4F100",
"4.	c #C3F100",
"5.	c #C4EE00",
"6.	c #D37600",
"7.	c #C03B00",
"8.	c #A34400",
"9.	c #C35900",
"0.	c #CC5F00",
"a.	c #CF6100",
"b.	c #CA5F00",
"c.	c #642F00",
"d.	c #010000",
"e.	c #030800",
"f.	c #38AD05",
"g.	c #48E006",
"h.	c #53E106",
"i.	c #5EE205",
"j.	c #5EE305",
"k.	c #6EC705",
"l.	c #C08A00",
"m.	c #CF7A00",
"n.	c #CC7000",
"o.	c #CC6900",
"p.	c #CD6300",
"q.	c #CD5D00",
"r.	c #CD5E00",
"s.	c #110700",
"t.	c #000800",
"u.	c #00A408",
"v.	c #00D40A",
"w.	c #08BA11",
"x.	c #C2E200",
"y.	c #C5E200",
"z.	c #C6D800",
"A.	c #C6CC00",
"B.	c #C7C100",
"C.	c #C8B300",
"D.	c #D2A100",
"E.	c #553D00",
"F.	c #00A508",
"G.	c #00D50A",
"H.	c #00D00B",
"I.	c #00A117",
"J.	c #C0DD01",
"K.	c #C5DF00",
"L.	c #CAE600",
"M.	c #7B8B00",
"N.	c #00D809",
"O.	c #00B412",
"P.	c #00A017",
"Q.	c #98D205",
"R.	c #C8E000",
"S.	c #CAE400",
"T.	c #829400",
"U.	c #000702",
"V.	c #00A30B",
"W.	c #00CC0D",
"X.	c #00A316",
"Y.	c #00A217",
"Z.	c #6EC50A",
"`.	c #CBE100",
" +	c #747C00",
".+	c #000309",
"++	c #008249",
"@+	c #00D509",
"#+	c #00B013",
"$+	c #00A416",
"%+	c #00A317",
"&+	c #46B90E",
"*+	c #CEE200",
"=+	c #E0EB00",
"-+	c #393500",
";+	c #000407",
">+	c #005995",
",+	c #00D111",
"'+	c #00CD0D",
")+	c #00A516",
"!+	c #1FAE13",
"~+	c #D1E300",
"{+	c #C4DF00",
"]+	c #CFE100",
"^+	c #B9AD00",
"/+	c #040400",
"(+	c #00579A",
"_+	c #00967F",
":+	c #00D902",
"<+	c #00D60A",
"[+	c #00B413",
"}+	c #CFE200",
"|+	c #C6E000",
"1+	c #C6E100",
"2+	c #CBE000",
"3+	c #D2C400",
"4+	c #1A1700",
"5+	c #000508",
"6+	c #005E9D",
"7+	c #0079CC",
"8+	c #00CE2F",
"9+	c #00D60D",
"0+	c #00AB18",
"a+	c #00AD17",
"b+	c #00AD18",
"c+	c #BAE603",
"d+	c #BBD300",
"e+	c #8EA000",
"f+	c #585700",
"g+	c #090900",
"h+	c #000102",
"i+	c #001524",
"j+	c #001C2F",
"k+	c #002819",
"l+	c #002B04",
"m+	c #002706",
"n+	c #002606",
"o+	c #002004",
"p+	c #001403",
"q+	c #010300",
"        . . . . . . . . . . . . . . . .                         ",
"        . . . . . . . . . . . . . . . . . .                     ",
"        . . . . . . . . . . . . . . . . . . . .                 ",
"        . . . + @ # $ # % & * = - ; > . . . . .                 ",
"        . . . , ' ) ! ~ { ] ^ / ( _ : < . . . . .               ",
"        . . . , [ } | 1 2 3 4 5 6 7 8 9 0 . . . .               ",
"        . . . a b 1 1 1 c d e e f g h i j . . . .               ",
"        . . . k l 1 1 1 m n e e e o p q r . . . .               ",
"        . . . k l 1 1 1 s / e e e e t u v . . . .               ",
"        . . . k l 1 1 2 w x e e e e e y z . . . .               ",
"        . . . k A 1 1 B C 4 e e e e e D E . . . .               ",
"        . . . F G H 2 I J e e e e K L M . . . .                 ",
"        . . . N O P Q R S T U V W X Y . . . .                   ",
"        . . . . Z `  ...+.@.#.$.. . . . .                       ",
"        . . . . . . . . . . . . . . . . . . .                   ",
"        . . . . . . . . . . . . . . . . . . . . .               ",
"        . . . %.&.*.*.*.*.=.-.;.>.,.'.).. . . . . .             ",
"        . . . !.~.{.{.{.{.].^./.(._.:.<.[.}.. . . . .           ",
"        . . . |.1.2.3.4.4.3.5.6.7.8.9.0.a.b.c.d.. . .           ",
"        . . . e.f.g.h.i.i.i.j.k.l.m.n.o.p.q.r.s.. . . .         ",
"        . . . t.u.v.v.v.v.v.v.w.x.y.z.A.B.C.D.E.. . . .         ",
"        . . . t.F.G.G.G.G.G.H.I.J.K.K.K.K.K.L.M.. . . .         ",
"        . . . t.F.G.G.G.G.N.O.P.Q.R.K.K.K.K.S.T.. . . .         ",
"        . . . U.V.G.G.G.G.W.X.Y.Z.`.K.K.K.K.L. +. . . .         ",
"        . . . .+++@+G.G.G.#+$+%+&+*+K.K.K.K.=+-+. . . .         ",
"        . . . ;+>+,+@+G.'+)+$+X.!+~+K.K.{+]+^+/+. . .           ",
"        . . . ;+(+_+:+<+[+X.$+$+Y.}+|+1+2+3+4+. . . .           ",
"        . . . 5+6+7+8+9+0+a+a+a+b+c+d+e+f+g+. . . .             ",
"        . . . h+i+j+k+l+m+m+n+o+p+q+. . . . . . . .             ",
"        . . . . . . . . . . . . . . . . . . . . .               ",
"        . . . . . . . . . . . . . . . . . . .                   ",
"        . . . . . . . . . . . . . . . . .                       "};
