/* XPM */
static char * MDICHILD_ICON_xpm[] = {
"16 16 150 2",
"  	c None",
". 	c #03896B",
"+ 	c #04854B",
"@ 	c #058430",
"# 	c #039E5E",
"$ 	c #00C1B7",
"% 	c #00CACE",
"& 	c #00C0CA",
"* 	c #0096BE",
"= 	c #008FBB",
"- 	c #0099B9",
"; 	c #00B1B5",
"> 	c #00C0B4",
", 	c #00AECC",
"' 	c #3F9000",
") 	c #2E8A00",
"! 	c #208600",
"~ 	c #168301",
"{ 	c #0B9944",
"] 	c #03B89D",
"^ 	c #00C9CD",
"/ 	c #00B6C7",
"( 	c #0090BC",
"_ 	c #00B2B5",
": 	c #00C1B4",
"< 	c #00B0C9",
"[ 	c #D5BF00",
"} 	c #CBBB00",
"| 	c #BFB800",
"1 	c #AFB300",
"2 	c #9BAC00",
"3 	c #82AF29",
"4 	c #36B88C",
"5 	c #00AAC3",
"6 	c #00B2C6",
"7 	c #E1C300",
"8 	c #E1C200",
"9 	c #EFAF00",
"0 	c #9E982B",
"a 	c #13A998",
"b 	c #00AABD",
"c 	c #00B3B5",
"d 	c #00C0B3",
"e 	c #00B3C4",
"f 	c #EAB600",
"g 	c #FAA200",
"h 	c #E39500",
"i 	c #557F2E",
"j 	c #189B5D",
"k 	c #14AA67",
"l 	c #14AA68",
"m 	c #13AA68",
"n 	c #11AC6F",
"o 	c #10AE73",
"p 	c #1CB283",
"q 	c #E5BC00",
"r 	c #F6A800",
"s 	c #FEA000",
"t 	c #FC9F00",
"u 	c #9E7C00",
"v 	c #367D01",
"w 	c #308D01",
"x 	c #2F8D03",
"y 	c #308E03",
"z 	c #62B003",
"A 	c #6FD506",
"B 	c #E1C100",
"C 	c #F0AE00",
"D 	c #FDA000",
"E 	c #D79000",
"F 	c #517A00",
"G 	c #318C00",
"H 	c #318D00",
"I 	c #379100",
"J 	c #72BA00",
"K 	c #B0E500",
"L 	c #8CE802",
"M 	c #EBB500",
"N 	c #FBA100",
"O 	c #F99E00",
"P 	c #8A8300",
"Q 	c #318A00",
"R 	c #429900",
"S 	c #81C400",
"T 	c #BAEC00",
"U 	c #BFF000",
"V 	c #E6BB00",
"W 	c #F7A600",
"X 	c #C69000",
"Y 	c #418800",
"Z 	c #51A300",
"` 	c #90CF00",
" .	c #BEEF00",
"..	c #8EE802",
"+.	c #E2C000",
"@.	c #F1AD00",
"#.	c #FD9F00",
"$.	c #FD9E00",
"%.	c #F19300",
"&.	c #979800",
"*.	c #A0D900",
"=.	c #96E901",
"-.	c #ECB300",
";.	c #FCA100",
">.	c #FC9A00",
",.	c #F88D00",
"'.	c #F37700",
").	c #ED6000",
"!.	c #E74B00",
"~.	c #D25300",
"{.	c #C79F00",
"].	c #C0E100",
"^.	c #97EA01",
"/.	c #F7A300",
"(.	c #FA9400",
"_.	c #F58200",
":.	c #EF6B00",
"<.	c #E95300",
"[.	c #E54000",
"}.	c #E23600",
"|.	c #E23400",
"1.	c #E13400",
"2.	c #D93B00",
"3.	c #D34500",
"4.	c #CC7C00",
"5.	c #C3C100",
"6.	c #BFEF00",
"7.	c #EC5E00",
"8.	c #E64800",
"9.	c #E33A00",
"0.	c #D44100",
"a.	c #D34200",
"b.	c #D05A00",
"c.	c #C8A000",
"d.	c #C0E200",
"e.	c #BC2B00",
"f.	c #E13300",
"g.	c #D44200",
"h.	c #9CBB01",
"i.	c #7E1C00",
"j.	c #AC2700",
"k.	c #DB3200",
"l.	c #D04100",
"m.	c #BC6C00",
"n.	c #801C00",
"o.	c #6E1900",
"p.	c #9B2300",
"q.	c #CE2F00",
"r.	c #B13D00",
"s.	c #B85C00",
". + @ # $ % % % & * = - ; > > , ",
"' ) ! ~ { ] ^ % / ( - _ > : : < ",
"[ } | 1 2 3 4 ^ 5 - _ > : : : 6 ",
"7 7 7 7 8 9 0 a b c d d d d d e ",
"7 7 7 8 f g h i j k l m n o o p ",
"7 7 7 q r s t u v w w w x y z A ",
"7 7 B C D s s E F G H H I J K L ",
"7 8 M N s s s O P Q H R S T U L ",
"7 V W s s s s s X Y Z `  .U U ..",
"+.@.D s s s #.$.%.&.*. .U U U =.",
"-.;.s #.>.,.'.).!.~.{.].U U U ^.",
"/.(._.:.<.[.}.|.1.2.3.4.5.6.U ^.",
"7.8.9.|.|.|.|.|.1.2.0.a.b.c.d.^.",
"e.f.|.|.|.|.|.|.1.2.0.g.g.3.4.h.",
"i.j.k.|.|.|.|.|.1.2.0.g.g.g.l.m.",
"n.o.p.q.|.|.|.|.1.2.0.g.g.l.r.s."};
