/* XPM */
static char * FRAME_ICON32x32_xpm[] = {
"32 32 278 2",
"  	c None",
". 	c #FFFFFF",
"+ 	c #FEFEFE",
"@ 	c #FDFDFD",
"# 	c #FEFEFF",
"$ 	c #FBE8AF",
"% 	c #FBBA0C",
"& 	c #FBBB0D",
"* 	c #FBDD8A",
"= 	c #FCE6A9",
"- 	c #FDB000",
"; 	c #FCD882",
"> 	c #FBE1A9",
", 	c #FDAA00",
"' 	c #FDA900",
") 	c #FCD683",
"! 	c #FFFEFE",
"~ 	c #FCF3EA",
"{ 	c #FDFFFF",
"] 	c #FDA400",
"^ 	c #FCD283",
"/ 	c #FEFFFF",
"( 	c #FBEBDD",
"_ 	c #FFFFFE",
": 	c #FDF2E8",
"< 	c #FC7F1A",
"[ 	c #FA9C4B",
"} 	c #FEFCFA",
"| 	c #FDFEFE",
"1 	c #FBDDA9",
"2 	c #FD9A00",
"3 	c #FC9A00",
"4 	c #FCD083",
"5 	c #FAAD69",
"6 	c #FC7302",
"7 	c #FCE6D3",
"8 	c #FCF5EE",
"9 	c #FC7E19",
"0 	c #FE7300",
"a 	c #FD7800",
"b 	c #FAA34B",
"c 	c #FADCA7",
"d 	c #FD9800",
"e 	c #FD9500",
"f 	c #FBCB7B",
"g 	c #FAB369",
"h 	c #FE7600",
"i 	c #FC760A",
"j 	c #FBE3CE",
"k 	c #FAA359",
"l 	c #FD7D00",
"m 	c #FE7D00",
"n 	c #FBA94B",
"o 	c #FDFBF9",
"p 	c #FDFEFF",
"q 	c #FDF6E1",
"r 	c #FCDD87",
"s 	c #FCBF1A",
"t 	c #FEA900",
"u 	c #FD8F00",
"v 	c #FD9200",
"w 	c #FDA300",
"x 	c #FCBA03",
"y 	c #FCD363",
"z 	c #FDF2D1",
"A 	c #FEFEFD",
"B 	c #FAB869",
"C 	c #FE7B00",
"D 	c #FD7E00",
"E 	c #FD7700",
"F 	c #FB953E",
"G 	c #FEFDFD",
"H 	c #FAAB59",
"I 	c #FE7C00",
"J 	c #FD8700",
"K 	c #FD8B00",
"L 	c #FBB153",
"M 	c #FCDB77",
"N 	c #FDBB0C",
"O 	c #FEB600",
"P 	c #FEB800",
"Q 	c #FDA800",
"R 	c #FE8B00",
"S 	c #FE8800",
"T 	c #FDA200",
"U 	c #FEB700",
"V 	c #FDB802",
"W 	c #FCCC41",
"X 	c #FBBD6A",
"Y 	c #FD8800",
"Z 	c #FE7F00",
"` 	c #FB9D3E",
" .	c #FEFBF7",
"..	c #FAB159",
"+.	c #FD8E00",
"@.	c #FD9E00",
"#.	c #FDB400",
"$.	c #FE8600",
"%.	c #FE8200",
"&.	c #FD9C00",
"*.	c #FDB500",
"=.	c #FDB300",
"-.	c #FEB500",
";.	c #FDA500",
">.	c #FD9100",
",.	c #FBA33E",
"'.	c #FDFDFB",
").	c #FAB660",
"!.	c #FD9700",
"~.	c #FC9B00",
"{.	c #FDAE00",
"].	c #FA9D00",
"^.	c #FD9600",
"/.	c #FCAF00",
"(.	c #FCAE00",
"_.	c #FC9C00",
":.	c #FD9300",
"<.	c #FCAC46",
"[.	c #FCDE82",
"}.	c #FDA100",
"|.	c #FC9700",
"1.	c #FE7800",
"2.	c #FE7A00",
"3.	c #FD9000",
"4.	c #FCA800",
"5.	c #FDA700",
"6.	c #FCC937",
"7.	c #FEFDF9",
"8.	c #FEF7E5",
"9.	c #FDBC11",
"0.	c #FDAB00",
"a.	c #FCAD00",
"b.	c #FDAD00",
"c.	c #F98C00",
"d.	c #FD6F00",
"e.	c #FD6E00",
"f.	c #FA8600",
"g.	c #FCAA00",
"h.	c #FCA500",
"i.	c #FDB600",
"j.	c #FDB700",
"k.	c #FCEBBB",
"l.	c #FCE49E",
"m.	c #FDB200",
"n.	c #FCAC00",
"o.	c #F89A00",
"p.	c #FA9200",
"q.	c #F79000",
"r.	c #F89400",
"s.	c #FDB100",
"t.	c #FDAF00",
"u.	c #FCC83C",
"v.	c #FCC735",
"w.	c #F79200",
"x.	c #F58500",
"y.	c #F58600",
"z.	c #F78F00",
"A.	c #FCB000",
"B.	c #FDAC00",
"C.	c #FDFDF6",
"D.	c #FBE39D",
"E.	c #FCDF96",
"F.	c #FCDA96",
"G.	c #FCD996",
"H.	c #FCD596",
"I.	c #FCD79E",
"J.	c #FCA600",
"K.	c #FD9F00",
"L.	c #FD9900",
"M.	c #FC9300",
"N.	c #FC8800",
"O.	c #F47F00",
"P.	c #F37800",
"Q.	c #F37A00",
"R.	c #F37B00",
"S.	c #F58400",
"T.	c #F89300",
"U.	c #F68A00",
"V.	c #F68E00",
"W.	c #F79700",
"X.	c #F79500",
"Y.	c #F6B56E",
"Z.	c #F6C197",
"`.	c #F6C196",
" +	c #F6C096",
".+	c #FCA700",
"++	c #FD8900",
"@+	c #FE8300",
"#+	c #FE7700",
"$+	c #F79100",
"%+	c #F16F00",
"&+	c #F16E00",
"*+	c #F37700",
"=+	c #F58300",
"-+	c #FB9100",
";+	c #EF6800",
">+	c #EF6600",
",+	c #EF6500",
"'+	c #EF6400",
")+	c #FE8900",
"!+	c #FB9200",
"~+	c #F47E00",
"{+	c #FAE39D",
"]+	c #FBDE96",
"^+	c #FBDD96",
"/+	c #FBD996",
"(+	c #FCD796",
"_+	c #FBD79D",
":+	c #FDA600",
"<+	c #FA8C00",
"[+	c #F68900",
"}+	c #FB9300",
"|+	c #F98900",
"1+	c #F78E00",
"2+	c #FA9300",
"3+	c #F89700",
"4+	c #FA9500",
"5+	c #F5B56E",
"6+	c #F4C096",
"7+	c #F4C196",
"8+	c #FCC630",
"9+	c #F68B00",
"0+	c #FDFCF1",
"a+	c #FBE298",
"b+	c #FEB400",
"c+	c #F79400",
"d+	c #FEF7E3",
"e+	c #FDBC0F",
"f+	c #FE8400",
"g+	c #FCEAB5",
"h+	c #FCDA75",
"i+	c #FCA900",
"j+	c #FD8C00",
"k+	c #FC9D00",
"l+	c #FCC830",
"m+	c #FEFCF7",
"n+	c #FBBF70",
"o+	c #FD9D00",
"p+	c #FCB100",
"q+	c #FBB04E",
"r+	c #FEFDFB",
"s+	c #FC9100",
"t+	c #FBAA4B",
"u+	c #FCAD47",
"v+	c #FCD869",
"w+	c #FDB906",
"x+	c #FDB800",
"y+	c #FDC935",
"z+	c #FBB75B",
"A+	c #FD7F00",
"B+	c #FDF5DD",
"C+	c #FCD874",
"D+	c #FBBB09",
"E+	c #FCCE4F",
"F+	c #FDEEC4",
"G+	c #FEFDFA",
"H+	c #FA9D4B",
"I+	c #FBEFE4",
"J+	c #FC7609",
"K+	c #FAD799",
"L+	c #FD9400",
"M+	c #FBC772",
"N+	c #FC7406",
"O+	c #FAE5D2",
"P+	c #FCEADA",
"Q+	c #FC780E",
"R+	c #FB963E",
"S+	c #FBDEAA",
"T+	c #FCCE83",
"U+	c #FEFDFC",
"V+	c #FAA55A",
"W+	c #FC7304",
"X+	c #FBE8D8",
"Y+	c #FBE0A9",
"Z+	c #FCD383",
"`+	c #FCD983",
" @	c #FCE7A9",
".@	c #FDDC83",
". + . . . . . . @ + + + + # $ % & * . . . . . . . . . . . . @ + ",
"+ + + + + + + . @ + + + + # = - - ; . . . . . . . . . . . . @ + ",
"+ + + + . . # . @ + @ @ + # > , ' ) . . . . . . + ! . + + . @ + ",
". + . . . ~ { # @ + + + + # > ] ] ^ . . . . . . ! / ( / . . @ + ",
". + _ / : < [ } | @ + + @ / 1 2 3 4 . . . . + ! / 5 6 7 / ! @ + ",
". + . 8 9 0 a b { + @ @ / / c d e f / . . + ! / g a h i j . @ + ",
". + + / k a l m n o p q r s t u v w x y z A / B C D E F { . @ + ",
". . . + G H I J K L M N O P Q R S T O U V W X Y J Z `  .# . @ + ",
"@ @ @ @ @ / ..Y +.v @.U #.#.w $.%.&.*.=.-.;.>.+.K ,.{ / . . @ + ",
"+ + + + G @ '.).v !.~.Q {.{.].m I ^./.(.' _.2 :.<. ./ _ . . @ + ",
"+ @ @ + + + / [.}._.}.] ' Q |.1.2.3.4.' 5.T _.@.6.7.+ . . . @ + ",
"+ @ @ + + _ 8.9.U Q ] 0.a.b.c.d.e.f.g.{.0.;.h.i.j.k.. . . . @ + ",
"+ + + @ @ # l.i.i.m.Q n.=.i.o.p.q.r.=.m.s.' t.#.U u.. ! . . @ + ",
"/ / / / / / v.P #./.Q a.i.w.x.y.y.x.z.#.A.h.B.-.U -.C.. . . / / ",
"D.E.F.G.H.I.J.;.K.L.M.N.o.x.O.P.Q.R.S.T.y.U.V.w.W.X.Y.Z.`.`. + +",
"& - .+] _.^.u ++@+m #+e.$+y.Q.%+&+*+=+-+;+>+>+>+>+>+,+,+,+,+'+'+",
"& B., w L.:.3.)+@+m #+e.!+x.~+%+&+*+=+q.'+>+>+>+>+>+,+,+,+,+,+,+",
"{+]+^+/+(+_+.+:+K.L.:.<+r.[+R.Q.P.Q.=+}+x.|+1+2+3+4+5+Z.`.`.6+7+",
". . . . . . 8+P *.{.4.B.i.q.x.x.x.y.9+m.a.J.t.*.U *.0+. . . / / ",
". . . . . . a+i.b+m.' A.=.*.3+q.$+c+m.O a.' (.=.U v./ . . . + + ",
". . . . . + d+e+U ' ;.0.{.- <+e.e.f+n.a.0.] :+b+j.g+. + . . @ @ ",
". . . . . . / h+] _.T ] i+Q 2+#+#+j+Q ' ] }.k+K.l+m+! . . . @ @ ",
". . . . + ! # n+>.2 _.' {.(.o+m m ^./.p+:+_.!.v q+r+. _ . . + + ",
". . . . ! / B K +.:.o+j.#.#.w @+@+&.*.=.U T v s+S t+{ + . . @ @ ",
". . + ! / g I J K u+v+w+U x+;.)+)+@.U U j.y+z+R J m b } . . @ + ",
". . ! / 5 E A+Z ,. ./ B+C+D+t u u w j.E+F+G+A ..I l a H+/ . @ + ",
". . . I+J+h a ` / . + ! . / K+L+L+M+{ . . + ! / H a 0 N+O+. @ + ",
". . + / P+Q+R+ .. + . . + . S+2 3 T+. + . . + ! U+V+W+7 . . @ + ",
". . . + . X+{ # . . . . . . Y+}.] Z+. . . . . . ! / X+. + . @ + ",
". . . . . . . . . + . . . . > ' :+Z+. + + . + . + . . . . . @ @ ",
"@ @ @ @ @ + + + + + + + @ # = - s.`+/ + . + . + . . + + @ @ + + ",
"+ + + + @ + + + + + + + @ #  @O O .@/ + . + . + . . + + @ + @ @ "};
