/* XPM */
static char * FRAME_ICON16x16_xpm[] = {
"16 16 164 2",
"  	c None",
". 	c #FEFEFE",
"+ 	c #FFFFFF",
"@ 	c #FEFDFC",
"# 	c #FEFCF6",
"$ 	c #FDCE56",
"% 	c #FEC53D",
"& 	c #FEF6E1",
"* 	c #FEFDFB",
"= 	c #FEFEFD",
"- 	c #FEFFFF",
"; 	c #FFFEFE",
"> 	c #FEF5EE",
", 	c #FEF8F4",
"' 	c #FEC75B",
") 	c #FFBD3E",
"! 	c #FFF9F1",
"~ 	c #FEFAF8",
"{ 	c #FEF3EB",
"] 	c #FEF6EF",
"^ 	c #FDAB64",
"/ 	c #FEAA5D",
"( 	c #FEF8F3",
"_ 	c #FEB743",
": 	c #FEAD2B",
"< 	c #FEEDC8",
"[ 	c #FEFEFF",
"} 	c #FEB775",
"| 	c #FE9D4B",
"1 	c #FEEDDE",
"2 	c #FEF8F5",
"3 	c #FDAD62",
"4 	c #FE7D00",
"5 	c #FEB763",
"6 	c #FEE5A2",
"7 	c #FECD47",
"8 	c #FE9F07",
"9 	c #FE9800",
"0 	c #FEC435",
"a 	c #FEE391",
"b 	c #FEC275",
"c 	c #FE8000",
"d 	c #FE9F46",
"e 	c #FEF3E9",
"f 	c #FEF9F6",
"g 	c #FEB968",
"h 	c #FE8D00",
"i 	c #FFA400",
"j 	c #FEAE00",
"k 	c #FE8F00",
"l 	c #FF8A00",
"m 	c #FEAA00",
"n 	c #FEA700",
"o 	c #FEAE4C",
"p 	c #FEF3E7",
"q 	c #FEE7A7",
"r 	c #FFA500",
"s 	c #FFA100",
"t 	c #FEAB00",
"u 	c #FD8D00",
"v 	c #FE8701",
"w 	c #FEDA7A",
"x 	c #FEFBF2",
"y 	c #FFFEFF",
"z 	c #FEF6E0",
"A 	c #FECE4E",
"B 	c #FCA501",
"C 	c #F98A01",
"D 	c #F88601",
"E 	c #FBA000",
"F 	c #FEA900",
"G 	c #FDC021",
"H 	c #FEEECC",
"I 	c #FEF8F1",
"J 	c #FECB52",
"K 	c #FFC454",
"L 	c #FEB540",
"M 	c #FE9D09",
"N 	c #FE8E00",
"O 	c #FD8C00",
"P 	c #F98B01",
"Q 	c #F47B00",
"R 	c #F37801",
"S 	c #F68701",
"T 	c #F68200",
"U 	c #F47A00",
"V 	c #F57F00",
"W 	c #F59039",
"X 	c #F59855",
"Y 	c #F5964C",
"Z 	c #FDC642",
"` 	c #FEBE43",
" .	c #FEAF31",
"..	c #FE9A05",
"+.	c #FE8B00",
"@.	c #FD8800",
"#.	c #F88801",
"$.	c #F37900",
"%.	c #F37601",
"&.	c #F68501",
"*.	c #F47E01",
"=.	c #F37600",
"-.	c #F47900",
";.	c #F3872C",
">.	c #F38E44",
",.	c #F38C3C",
"'.	c #FEF7E6",
").	c #FEFAF3",
"!.	c #FEF0D2",
"~.	c #FEC944",
"{.	c #FEAC00",
"].	c #FDA800",
"^.	c #FBA200",
"/.	c #F88901",
"(.	c #FB9F00",
"_.	c #FCA700",
":.	c #FCA600",
"<.	c #FDB919",
"[.	c #FDE6BE",
"}.	c #FDF6F9",
"|.	c #FDF1E4",
"1.	c #FEE7A1",
"2.	c #FEA800",
"3.	c #FD8B01",
"4.	c #FD8501",
"5.	c #FFA600",
"6.	c #FEDA73",
"7.	c #FEC379",
"8.	c #FFA000",
"9.	c #FE8C00",
"0.	c #FF8700",
"a.	c #FEB659",
"b.	c #FEF9F1",
"c.	c #FEFBF8",
"d.	c #FEAF4F",
"e.	c #FEDE8A",
"f.	c #FEC730",
"g.	c #FE9B00",
"h.	c #FF9500",
"i.	c #FEBE20",
"j.	c #FEDB79",
"k.	c #FEB85E",
"l.	c #FE8100",
"m.	c #FEA959",
"n.	c #FEF4EC",
"o.	c #FDA04F",
"p.	c #FEF4E8",
"q.	c #FEF4D6",
"r.	c #FFAB29",
"s.	c #FEEABE",
"t.	c #FEFAF5",
"u.	c #FDAC5F",
"v.	c #FD963D",
"w.	c #FEECDD",
"x.	c #FEEDE0",
"y.	c #FEF3EA",
"z.	c #FEC65C",
"A.	c #FFBC3E",
"B.	c #FFFAF4",
"C.	c #FEF7F2",
"D.	c #FEEDDF",
"E.	c #FFFBF8",
"F.	c #FEFCF5",
"G.	c #FFC337",
". + + + @ + # $ % & + * + + + = ",
"- ; > , + + - ' ) ! + + ~ { * + ",
"+ ] ^ / ( - & _ : < - [ } | 1 + ",
"+ 2 3 4 5 6 7 8 9 0 a b c d e + ",
"@ + f g h i j k l m n h o p + * ",
"+ + - q r s t u v n i s w + + + ",
"x y z A j m B C D E F m G H [ I ",
"J K L M N O P Q R S T U V W X Y ",
"Z `  ...+.@.#.$.%.&.*.=.-.;.>.,.",
"'.).!.~.{.].^./.D (._.:.<.[.}.|.",
"+ + - 1.2.i t 3.4.n 5.i 6.+ + + ",
"@ + [ 7.N 8.{.9.0.2.i h a.b.+ * ",
"+ c.} c d.e.f.g.h.i.j.k.l.m.] + ",
"+ n.o.d p.- q.L r.s.- t.u.v.w.+ ",
"+ @ x.y.+ + - z.A.B.+ + C.D.E.+ ",
". + + + @ + F.J G.z - * + + - = "};
